<mxfile host="Electron" modified="2024-01-28T07:23:58.293Z" agent="Mozilla/5.0 (Windows NT 10.0; Win64; x64) AppleWebKit/537.36 (KHTML, like Gecko) draw.io/23.0.2 Chrome/120.0.6099.109 Electron/28.1.0 Safari/537.36" etag="yAKgAK-QJa-o0hvOKZsO" version="23.0.2" type="device">
  <diagram name="ページ1" id="LE8fIzdrHe0wcv1LTvfw">
    <mxGraphModel dx="2165" dy="2495" grid="1" gridSize="10" guides="1" tooltips="1" connect="1" arrows="1" fold="1" page="1" pageScale="1" pageWidth="1600" pageHeight="1200" math="0" shadow="0">
      <root>
        <mxCell id="0" />
        <mxCell id="cFaB45KztUIKXS-_cTrr-4" value="背景" style="locked=1;" parent="0" />
        <mxCell id="cFaB45KztUIKXS-_cTrr-5" value="" style="rounded=0;whiteSpace=wrap;html=1;strokeWidth=3;" parent="cFaB45KztUIKXS-_cTrr-4" vertex="1">
          <mxGeometry x="14" y="8" width="1556" height="1180" as="geometry" />
        </mxCell>
        <mxCell id="cFaB45KztUIKXS-_cTrr-8" value="" style="rounded=0;whiteSpace=wrap;html=1;" parent="cFaB45KztUIKXS-_cTrr-4" vertex="1">
          <mxGeometry x="843" y="677" width="120" height="60" as="geometry" />
        </mxCell>
        <mxCell id="cFaB45KztUIKXS-_cTrr-9" value="ウインドウ" style="" parent="0" />
        <mxCell id="cFaB45KztUIKXS-_cTrr-10" value="" style="rounded=0;whiteSpace=wrap;html=1;strokeWidth=3;" parent="cFaB45KztUIKXS-_cTrr-9" vertex="1">
          <mxGeometry x="12" width="1572" height="1560" as="geometry" />
        </mxCell>
        <mxCell id="cFaB45KztUIKXS-_cTrr-11" value="" style="rounded=0;whiteSpace=wrap;html=1;fillColor=#B3B3B3;fontColor=#333333;strokeColor=#666666;" parent="cFaB45KztUIKXS-_cTrr-9" vertex="1">
          <mxGeometry x="12" y="15" width="1564" height="60" as="geometry" />
        </mxCell>
        <mxCell id="cFaB45KztUIKXS-_cTrr-12" value="&lt;font style=&quot;font-size: 48px;&quot;&gt;×&lt;/font&gt;" style="rounded=0;whiteSpace=wrap;html=1;" parent="cFaB45KztUIKXS-_cTrr-9" vertex="1">
          <mxGeometry x="1519" y="24" width="40" height="40" as="geometry" />
        </mxCell>
        <mxCell id="W4StcfhKFm-Ea1_i4g7Y-0" value="&lt;span style=&quot;font-size: 30px;&quot;&gt;名称&lt;/span&gt;" style="rounded=0;whiteSpace=wrap;html=1;align=right;dashed=1;dashPattern=8 8;verticalAlign=bottom;" parent="cFaB45KztUIKXS-_cTrr-9" vertex="1">
          <mxGeometry x="193" y="558" width="160" height="46" as="geometry" />
        </mxCell>
        <mxCell id="W4StcfhKFm-Ea1_i4g7Y-1" value="&lt;span style=&quot;font-size: 30px;&quot;&gt;政治団体　三郎&lt;/span&gt;" style="rounded=0;whiteSpace=wrap;html=1;align=left;" parent="cFaB45KztUIKXS-_cTrr-9" vertex="1">
          <mxGeometry x="373" y="556" width="340" height="48" as="geometry" />
        </mxCell>
        <mxCell id="bIp9IXjeYyITA2uEsBcc-0" value="&lt;span style=&quot;font-size: 30px;&quot;&gt;各種Pay&lt;/span&gt;" style="rounded=0;whiteSpace=wrap;html=1;align=right;dashed=1;dashPattern=8 8;verticalAlign=bottom;" vertex="1" parent="cFaB45KztUIKXS-_cTrr-9">
          <mxGeometry x="183" y="689" width="170" height="46" as="geometry" />
        </mxCell>
        <mxCell id="bIp9IXjeYyITA2uEsBcc-1" value="&lt;span style=&quot;font-size: 30px;&quot;&gt;1233&lt;/span&gt;" style="rounded=0;whiteSpace=wrap;html=1;align=right;" vertex="1" parent="cFaB45KztUIKXS-_cTrr-9">
          <mxGeometry x="373" y="687" width="190" height="48" as="geometry" />
        </mxCell>
        <mxCell id="bIp9IXjeYyITA2uEsBcc-2" value="&lt;span style=&quot;font-size: 30px;&quot;&gt;仮想支払いPay&lt;/span&gt;" style="rounded=0;whiteSpace=wrap;html=1;align=left;" vertex="1" parent="cFaB45KztUIKXS-_cTrr-9">
          <mxGeometry x="603" y="687" width="420" height="48" as="geometry" />
        </mxCell>
        <mxCell id="bIp9IXjeYyITA2uEsBcc-3" value="&lt;span style=&quot;font-size: 30px;&quot;&gt;090&lt;br&gt;&lt;/span&gt;" style="rounded=0;whiteSpace=wrap;html=1;align=right;" vertex="1" parent="cFaB45KztUIKXS-_cTrr-9">
          <mxGeometry x="364" y="1094" width="170" height="48" as="geometry" />
        </mxCell>
        <mxCell id="bIp9IXjeYyITA2uEsBcc-4" value="&lt;span style=&quot;font-size: 30px;&quot;&gt;電話番号&lt;/span&gt;" style="rounded=0;whiteSpace=wrap;html=1;align=right;dashed=1;dashPattern=8 8;verticalAlign=bottom;" vertex="1" parent="cFaB45KztUIKXS-_cTrr-9">
          <mxGeometry x="34" y="1096" width="310" height="46" as="geometry" />
        </mxCell>
        <mxCell id="bIp9IXjeYyITA2uEsBcc-5" value="&lt;span style=&quot;font-size: 30px;&quot;&gt;456x&lt;br&gt;&lt;/span&gt;" style="rounded=0;whiteSpace=wrap;html=1;align=right;" vertex="1" parent="cFaB45KztUIKXS-_cTrr-9">
          <mxGeometry x="594" y="1094" width="170" height="48" as="geometry" />
        </mxCell>
        <mxCell id="bIp9IXjeYyITA2uEsBcc-6" value="&lt;span style=&quot;font-size: 30px;&quot;&gt;－&lt;/span&gt;" style="rounded=0;whiteSpace=wrap;html=1;align=right;dashed=1;dashPattern=8 8;verticalAlign=bottom;" vertex="1" parent="cFaB45KztUIKXS-_cTrr-9">
          <mxGeometry x="545" y="1096" width="40" height="46" as="geometry" />
        </mxCell>
        <mxCell id="bIp9IXjeYyITA2uEsBcc-7" value="&lt;span style=&quot;font-size: 30px;&quot;&gt;123x&lt;br&gt;&lt;/span&gt;" style="rounded=0;whiteSpace=wrap;html=1;align=right;" vertex="1" parent="cFaB45KztUIKXS-_cTrr-9">
          <mxGeometry x="834" y="1094" width="170" height="48" as="geometry" />
        </mxCell>
        <mxCell id="bIp9IXjeYyITA2uEsBcc-8" value="&lt;span style=&quot;font-size: 30px;&quot;&gt;－&lt;/span&gt;" style="rounded=0;whiteSpace=wrap;html=1;align=right;dashed=1;dashPattern=8 8;verticalAlign=bottom;" vertex="1" parent="cFaB45KztUIKXS-_cTrr-9">
          <mxGeometry x="785" y="1096" width="40" height="46" as="geometry" />
        </mxCell>
        <mxCell id="cFaB45KztUIKXS-_cTrr-14" value="名称未設定レイヤ" style="" parent="0" />
        <mxCell id="HvR4dSRWBfD3urc1JDpB-15" value="&lt;span style=&quot;font-size: 30px;&quot;&gt;送信&lt;/span&gt;" style="rounded=1;whiteSpace=wrap;html=1;" parent="cFaB45KztUIKXS-_cTrr-14" vertex="1">
          <mxGeometry x="1343" y="1430" width="210" height="60" as="geometry" />
        </mxCell>
        <mxCell id="HvR4dSRWBfD3urc1JDpB-16" value="&lt;span style=&quot;font-size: 30px;&quot;&gt;キャンセル&lt;/span&gt;" style="rounded=1;whiteSpace=wrap;html=1;" parent="cFaB45KztUIKXS-_cTrr-14" vertex="1">
          <mxGeometry x="1093" y="1430" width="210" height="60" as="geometry" />
        </mxCell>
        <mxCell id="HvR4dSRWBfD3urc1JDpB-17" value="&lt;span style=&quot;font-size: 30px;&quot;&gt;摘要&lt;/span&gt;" style="rounded=0;whiteSpace=wrap;html=1;align=right;dashed=1;dashPattern=8 8;verticalAlign=bottom;" parent="cFaB45KztUIKXS-_cTrr-14" vertex="1">
          <mxGeometry x="193" y="619" width="160" height="46" as="geometry" />
        </mxCell>
        <mxCell id="HvR4dSRWBfD3urc1JDpB-18" value="&lt;span style=&quot;font-size: 30px;&quot;&gt;ﾌﾘｺﾐ ｾｲｼﾞﾀﾞﾝﾀｲ ｻﾌﾞﾛｳ&lt;/span&gt;" style="rounded=0;whiteSpace=wrap;html=1;align=left;" parent="cFaB45KztUIKXS-_cTrr-14" vertex="1">
          <mxGeometry x="373" y="617" width="340" height="48" as="geometry" />
        </mxCell>
        <mxCell id="HvR4dSRWBfD3urc1JDpB-19" value="&lt;span style=&quot;font-size: 30px;&quot;&gt;金融機関&lt;/span&gt;" style="rounded=0;whiteSpace=wrap;html=1;align=right;dashed=1;dashPattern=8 8;verticalAlign=bottom;" parent="cFaB45KztUIKXS-_cTrr-14" vertex="1">
          <mxGeometry x="183" y="759" width="170" height="46" as="geometry" />
        </mxCell>
        <mxCell id="HvR4dSRWBfD3urc1JDpB-20" value="&lt;span style=&quot;font-size: 30px;&quot;&gt;1233&lt;/span&gt;" style="rounded=0;whiteSpace=wrap;html=1;align=right;" parent="cFaB45KztUIKXS-_cTrr-14" vertex="1">
          <mxGeometry x="373" y="757" width="190" height="48" as="geometry" />
        </mxCell>
        <mxCell id="CJZOtZTZ3qw7_Yt8c3Xf-0" value="&lt;span style=&quot;font-size: 30px;&quot;&gt;首都圏信用金庫&lt;/span&gt;" style="rounded=0;whiteSpace=wrap;html=1;align=left;" parent="cFaB45KztUIKXS-_cTrr-14" vertex="1">
          <mxGeometry x="603" y="757" width="420" height="48" as="geometry" />
        </mxCell>
        <mxCell id="CJZOtZTZ3qw7_Yt8c3Xf-1" value="&lt;span style=&quot;font-size: 30px;&quot;&gt;支店&lt;/span&gt;" style="rounded=0;whiteSpace=wrap;html=1;align=right;dashed=1;dashPattern=8 8;verticalAlign=bottom;" parent="cFaB45KztUIKXS-_cTrr-14" vertex="1">
          <mxGeometry x="183" y="829" width="170" height="46" as="geometry" />
        </mxCell>
        <mxCell id="CJZOtZTZ3qw7_Yt8c3Xf-2" value="&lt;span style=&quot;font-size: 30px;&quot;&gt;987&lt;/span&gt;" style="rounded=0;whiteSpace=wrap;html=1;align=right;" parent="cFaB45KztUIKXS-_cTrr-14" vertex="1">
          <mxGeometry x="373" y="827" width="190" height="48" as="geometry" />
        </mxCell>
        <mxCell id="CJZOtZTZ3qw7_Yt8c3Xf-3" value="&lt;span style=&quot;font-size: 30px;&quot;&gt;本店&lt;/span&gt;" style="rounded=0;whiteSpace=wrap;html=1;align=left;" parent="cFaB45KztUIKXS-_cTrr-14" vertex="1">
          <mxGeometry x="603" y="827" width="420" height="48" as="geometry" />
        </mxCell>
        <mxCell id="CJZOtZTZ3qw7_Yt8c3Xf-4" value="&lt;span style=&quot;font-size: 30px;&quot;&gt;口座種別&lt;/span&gt;" style="rounded=0;whiteSpace=wrap;html=1;align=right;dashed=1;dashPattern=8 8;verticalAlign=bottom;" parent="cFaB45KztUIKXS-_cTrr-14" vertex="1">
          <mxGeometry x="183" y="899" width="170" height="46" as="geometry" />
        </mxCell>
        <mxCell id="CJZOtZTZ3qw7_Yt8c3Xf-5" value="&lt;span style=&quot;font-size: 30px;&quot;&gt;▼1普通口座&lt;/span&gt;" style="rounded=0;whiteSpace=wrap;html=1;align=left;" parent="cFaB45KztUIKXS-_cTrr-14" vertex="1">
          <mxGeometry x="373" y="897" width="190" height="48" as="geometry" />
        </mxCell>
        <mxCell id="CJZOtZTZ3qw7_Yt8c3Xf-7" value="&lt;span style=&quot;font-size: 30px;&quot;&gt;口座番号&lt;/span&gt;" style="rounded=0;whiteSpace=wrap;html=1;align=right;dashed=1;dashPattern=8 8;verticalAlign=bottom;" parent="cFaB45KztUIKXS-_cTrr-14" vertex="1">
          <mxGeometry x="182" y="964" width="170" height="46" as="geometry" />
        </mxCell>
        <mxCell id="CJZOtZTZ3qw7_Yt8c3Xf-8" value="&lt;span style=&quot;font-size: 30px;&quot;&gt;7654321&lt;/span&gt;" style="rounded=0;whiteSpace=wrap;html=1;align=right;" parent="cFaB45KztUIKXS-_cTrr-14" vertex="1">
          <mxGeometry x="372" y="962" width="641" height="48" as="geometry" />
        </mxCell>
        <mxCell id="CJZOtZTZ3qw7_Yt8c3Xf-9" value="&lt;span style=&quot;font-size: 30px;&quot;&gt;口座名義人&lt;/span&gt;" style="rounded=0;whiteSpace=wrap;html=1;align=right;dashed=1;dashPattern=8 8;verticalAlign=bottom;" parent="cFaB45KztUIKXS-_cTrr-14" vertex="1">
          <mxGeometry x="182" y="1034" width="170" height="46" as="geometry" />
        </mxCell>
        <mxCell id="CJZOtZTZ3qw7_Yt8c3Xf-10" value="&lt;span style=&quot;font-size: 30px;&quot;&gt;ｾｲｼﾞﾀﾞﾝﾀｲ ｻﾌﾞﾛｳ&lt;/span&gt;" style="rounded=0;whiteSpace=wrap;html=1;align=left;" parent="cFaB45KztUIKXS-_cTrr-14" vertex="1">
          <mxGeometry x="372" y="1032" width="641" height="48" as="geometry" />
        </mxCell>
        <mxCell id="CJZOtZTZ3qw7_Yt8c3Xf-11" value="&lt;span style=&quot;font-size: 30px;&quot;&gt;&lt;font color=&quot;#ff0000&quot;&gt;&lt;b&gt;名称の住所&lt;/b&gt;&lt;/font&gt;&lt;/span&gt;" style="rounded=0;whiteSpace=wrap;html=1;align=right;dashed=1;dashPattern=8 8;verticalAlign=bottom;" parent="cFaB45KztUIKXS-_cTrr-14" vertex="1">
          <mxGeometry x="30" y="215" width="310" height="46" as="geometry" />
        </mxCell>
        <mxCell id="CJZOtZTZ3qw7_Yt8c3Xf-12" value="&lt;span style=&quot;font-size: 30px;&quot;&gt;123&lt;br&gt;&lt;/span&gt;" style="rounded=0;whiteSpace=wrap;html=1;align=right;" parent="cFaB45KztUIKXS-_cTrr-14" vertex="1">
          <mxGeometry x="364" y="1164" width="170" height="48" as="geometry" />
        </mxCell>
        <mxCell id="CJZOtZTZ3qw7_Yt8c3Xf-13" value="&lt;span style=&quot;font-size: 30px;&quot;&gt;郵便番号&lt;/span&gt;" style="rounded=0;whiteSpace=wrap;html=1;align=right;dashed=1;dashPattern=8 8;verticalAlign=bottom;" parent="cFaB45KztUIKXS-_cTrr-14" vertex="1">
          <mxGeometry x="34" y="1166" width="310" height="46" as="geometry" />
        </mxCell>
        <mxCell id="CJZOtZTZ3qw7_Yt8c3Xf-14" value="&lt;span style=&quot;font-size: 30px;&quot;&gt;456x&lt;br&gt;&lt;/span&gt;" style="rounded=0;whiteSpace=wrap;html=1;align=right;" parent="cFaB45KztUIKXS-_cTrr-14" vertex="1">
          <mxGeometry x="594" y="1164" width="170" height="48" as="geometry" />
        </mxCell>
        <mxCell id="CJZOtZTZ3qw7_Yt8c3Xf-15" value="&lt;span style=&quot;font-size: 30px;&quot;&gt;住所(郵便番号)&lt;/span&gt;" style="rounded=0;whiteSpace=wrap;html=1;align=right;dashed=1;dashPattern=8 8;verticalAlign=bottom;" parent="cFaB45KztUIKXS-_cTrr-14" vertex="1">
          <mxGeometry x="34" y="1226" width="310" height="46" as="geometry" />
        </mxCell>
        <mxCell id="CJZOtZTZ3qw7_Yt8c3Xf-16" value="&lt;span style=&quot;font-size: 30px;&quot;&gt;番地&lt;/span&gt;" style="rounded=0;whiteSpace=wrap;html=1;align=right;dashed=1;dashPattern=8 8;verticalAlign=bottom;" parent="cFaB45KztUIKXS-_cTrr-14" vertex="1">
          <mxGeometry x="34" y="1289" width="310" height="46" as="geometry" />
        </mxCell>
        <mxCell id="CJZOtZTZ3qw7_Yt8c3Xf-17" value="&lt;span style=&quot;font-size: 30px;&quot;&gt;建物&lt;/span&gt;" style="rounded=0;whiteSpace=wrap;html=1;align=right;dashed=1;dashPattern=8 8;verticalAlign=bottom;" parent="cFaB45KztUIKXS-_cTrr-14" vertex="1">
          <mxGeometry x="34" y="1351" width="310" height="46" as="geometry" />
        </mxCell>
        <mxCell id="CJZOtZTZ3qw7_Yt8c3Xf-18" value="&lt;span style=&quot;font-size: 30px;&quot;&gt;東京都千代田区霞ケ浦&lt;/span&gt;" style="rounded=0;whiteSpace=wrap;html=1;align=left;" parent="cFaB45KztUIKXS-_cTrr-14" vertex="1">
          <mxGeometry x="364" y="1225" width="550" height="48" as="geometry" />
        </mxCell>
        <mxCell id="CJZOtZTZ3qw7_Yt8c3Xf-19" value="&lt;span style=&quot;font-size: 30px;&quot;&gt;x丁目y番地&lt;/span&gt;" style="rounded=0;whiteSpace=wrap;html=1;align=left;" parent="cFaB45KztUIKXS-_cTrr-14" vertex="1">
          <mxGeometry x="364" y="1291" width="550" height="48" as="geometry" />
        </mxCell>
        <mxCell id="CJZOtZTZ3qw7_Yt8c3Xf-20" value="&lt;span style=&quot;font-size: 30px;&quot;&gt;zzzabcビル3Fqqq号室&lt;/span&gt;" style="rounded=0;whiteSpace=wrap;html=1;align=left;" parent="cFaB45KztUIKXS-_cTrr-14" vertex="1">
          <mxGeometry x="364" y="1353" width="550" height="48" as="geometry" />
        </mxCell>
        <mxCell id="CJZOtZTZ3qw7_Yt8c3Xf-22" value="&lt;span style=&quot;font-size: 30px;&quot;&gt;－&lt;/span&gt;" style="rounded=0;whiteSpace=wrap;html=1;align=right;dashed=1;dashPattern=8 8;verticalAlign=bottom;" parent="cFaB45KztUIKXS-_cTrr-14" vertex="1">
          <mxGeometry x="545" y="1166" width="40" height="46" as="geometry" />
        </mxCell>
        <mxCell id="CJZOtZTZ3qw7_Yt8c3Xf-35" value="&lt;span style=&quot;font-size: 30px;&quot;&gt;&lt;font color=&quot;#ff0000&quot;&gt;&lt;b&gt;名称&lt;/b&gt;&lt;/font&gt;&lt;/span&gt;" style="rounded=0;whiteSpace=wrap;html=1;align=right;dashed=1;dashPattern=8 8;verticalAlign=bottom;" parent="cFaB45KztUIKXS-_cTrr-14" vertex="1">
          <mxGeometry x="174" y="149" width="170" height="46" as="geometry" />
        </mxCell>
        <mxCell id="CJZOtZTZ3qw7_Yt8c3Xf-36" value="&lt;span style=&quot;font-size: 30px;&quot;&gt;政治団体　三郎&lt;/span&gt;" style="rounded=0;whiteSpace=wrap;html=1;align=left;fillColor=#CCCCCC;" parent="cFaB45KztUIKXS-_cTrr-14" vertex="1">
          <mxGeometry x="364" y="147" width="641" height="48" as="geometry" />
        </mxCell>
        <mxCell id="CJZOtZTZ3qw7_Yt8c3Xf-38" value="&lt;span style=&quot;font-size: 30px;&quot;&gt;東京都千代田区霞ケ浦x丁目y番地&lt;/span&gt;&lt;font style=&quot;font-size: 30px;&quot;&gt;zzzabcビル3Fqqq号室&lt;/font&gt;" style="rounded=0;whiteSpace=wrap;html=1;align=left;verticalAlign=top;fillColor=#CCCCCC;strokeColor=#000000;" parent="cFaB45KztUIKXS-_cTrr-14" vertex="1">
          <mxGeometry x="364" y="217" width="641" height="141" as="geometry" />
        </mxCell>
        <mxCell id="CJZOtZTZ3qw7_Yt8c3Xf-40" value="&lt;span style=&quot;font-size: 30px;&quot;&gt;名称区分&lt;/span&gt;" style="rounded=0;whiteSpace=wrap;html=1;align=right;dashed=1;dashPattern=8 8;verticalAlign=bottom;" parent="cFaB45KztUIKXS-_cTrr-14" vertex="1">
          <mxGeometry x="176" y="451" width="170" height="46" as="geometry" />
        </mxCell>
        <mxCell id="CJZOtZTZ3qw7_Yt8c3Xf-41" value="&lt;span style=&quot;font-size: 30px;&quot;&gt;個人(利用ユーザ：政治家)では共有されません。調査側には見えます)&lt;/span&gt;" style="rounded=0;whiteSpace=wrap;html=1;align=left;dashed=1;dashPattern=8 8;verticalAlign=bottom;" parent="cFaB45KztUIKXS-_cTrr-14" vertex="1">
          <mxGeometry x="409" y="451" width="1141" height="46" as="geometry" />
        </mxCell>
        <mxCell id="CJZOtZTZ3qw7_Yt8c3Xf-42" value="&lt;span style=&quot;font-size: 30px;&quot;&gt;&lt;br&gt;団体(情報が利用者間で共有されます)&lt;/span&gt;" style="rounded=0;whiteSpace=wrap;html=1;align=left;dashed=1;dashPattern=8 8;verticalAlign=bottom;" parent="cFaB45KztUIKXS-_cTrr-14" vertex="1">
          <mxGeometry x="418" y="508" width="527" height="40" as="geometry" />
        </mxCell>
        <mxCell id="CJZOtZTZ3qw7_Yt8c3Xf-43" value="&lt;font style=&quot;font-size: 84px;&quot;&gt;○&lt;/font&gt;" style="text;html=1;strokeColor=none;fillColor=none;align=center;verticalAlign=middle;whiteSpace=wrap;rounded=0;fontSize=60;" parent="cFaB45KztUIKXS-_cTrr-14" vertex="1">
          <mxGeometry x="356" y="456" width="60" height="30" as="geometry" />
        </mxCell>
        <mxCell id="CJZOtZTZ3qw7_Yt8c3Xf-44" value="&lt;font style=&quot;font-size: 48px;&quot;&gt;●&lt;/font&gt;" style="text;html=1;strokeColor=none;fillColor=none;align=center;verticalAlign=middle;whiteSpace=wrap;rounded=0;fontSize=48;" parent="cFaB45KztUIKXS-_cTrr-14" vertex="1">
          <mxGeometry x="357" y="457" width="60" height="30" as="geometry" />
        </mxCell>
        <mxCell id="CJZOtZTZ3qw7_Yt8c3Xf-45" value="&lt;font style=&quot;font-size: 84px;&quot;&gt;○&lt;/font&gt;" style="text;html=1;strokeColor=none;fillColor=none;align=center;verticalAlign=middle;whiteSpace=wrap;rounded=0;fontSize=60;" parent="cFaB45KztUIKXS-_cTrr-14" vertex="1">
          <mxGeometry x="355" y="505" width="60" height="30" as="geometry" />
        </mxCell>
        <mxCell id="NQPnrfSZSc5s_kf7zsRG-0" value="&lt;span style=&quot;font-size: 30px;&quot;&gt;下記の情報をもとに呼び出します&lt;/span&gt;" style="rounded=0;whiteSpace=wrap;html=1;align=left;dashed=1;dashPattern=8 8;verticalAlign=bottom;" parent="cFaB45KztUIKXS-_cTrr-14" vertex="1">
          <mxGeometry x="53" y="384" width="657" height="46" as="geometry" />
        </mxCell>
        <mxCell id="NQPnrfSZSc5s_kf7zsRG-1" value="&lt;span style=&quot;font-size: 30px;&quot;&gt;収支報告書に記載する情報&lt;/span&gt;" style="rounded=0;whiteSpace=wrap;html=1;align=left;dashed=1;dashPattern=8 8;verticalAlign=bottom;" parent="cFaB45KztUIKXS-_cTrr-14" vertex="1">
          <mxGeometry x="52" y="83" width="657" height="46" as="geometry" />
        </mxCell>
      </root>
    </mxGraphModel>
  </diagram>
</mxfile>
